<?xml version="1.0" encoding="utf-8"?>
<!-- Generator: Adobe Illustrator 27.2.0, SVG Export Plug-In . SVG Version: 6.00 Build 0)  -->
<svg version="1.1" xmlns="http://www.w3.org/2000/svg" xmlns:xlink="http://www.w3.org/1999/xlink" x="0px" y="0px"
	 viewBox="0 0 20 20" style="enable-background:new 0 0 20 20;" xml:space="preserve" width="20" height="20">
<style type="text/css">
	.st0{fill:#FAFAFA;}
	.st1{clip-path:url(#SVGID_00000042699929570432942640000011574420708762372271_);}
	.st2{clip-path:url(#SVGID_00000096048567893771585110000017610533777836654501_);}
	.st3{clip-path:url(#SVGID_00000031164963470239390470000010273586117827193758_);}
	.st4{clip-path:url(#SVGID_00000107550426632802351180000011659867335605986484_);}
	.st5{clip-path:url(#SVGID_00000181807590032774699830000013744102756090865586_);}
	.st6{clip-path:url(#SVGID_00000123401575056725372650000008345630041893634205_);}
	.st7{fill:#B1AEB0;}
	.st8{clip-path:url(#SVGID_00000080191723494871612560000005834289585156278431_);}
	.st9{clip-path:url(#SVGID_00000088855358826461260510000002855672168784994477_);}
	.st10{clip-path:url(#SVGID_00000134238720003885647490000017257277384463620256_);}
	.st11{clip-path:url(#SVGID_00000032619002181522831150000011654018610131820959_);}
	.st12{fill:#9D9A9C;}
	.st13{fill:#FFFFFF;}
	.st14{fill:none;stroke:#323232;stroke-miterlimit:10;}
	.st15{fill:#323232;}
	.st16{fill:none;stroke:#989898;stroke-miterlimit:10;}
	.st17{fill:none;}
	.st18{fill:#F8F9F9;}
	.st19{fill:none;stroke:#FFFFFF;stroke-miterlimit:10;}
	.st20{clip-path:url(#SVGID_00000111903488411161995820000004213578763616667043_);}
	.st21{clip-path:url(#SVGID_00000125604955351588473510000017027438288426667905_);}
	.st22{clip-path:url(#SVGID_00000077288006495729006890000017973499399338203563_);}
	.st23{clip-path:url(#SVGID_00000098921807051182469440000002516480641399174820_);}
	.st24{clip-path:url(#SVGID_00000137853500559248784520000016280419838827871902_);}
	.st25{clip-path:url(#SVGID_00000092434982964623165860000016079706665375697567_);}
	.st26{fill:none;stroke:#B4B4B4;stroke-miterlimit:10;}
	.st27{clip-path:url(#SVGID_00000031205182461718656860000003385930663456171439_);}
	.st28{clip-path:url(#SVGID_00000171711837590907996250000000894650172256953230_);}
	.st29{clip-path:url(#SVGID_00000163783831026165496960000005715401796614048932_);}
	.st30{clip-path:url(#SVGID_00000003819126389570236160000007192826738841878953_);}
	.st31{clip-path:url(#SVGID_00000067957607178431169330000004638920395949767613_);}
	.st32{clip-path:url(#SVGID_00000082342086183823620170000012138053292326776507_);}
	.st33{clip-path:url(#SVGID_00000116940933241936100370000006908456005903706009_);}
	.st34{fill:#FFFFFF;stroke:#B4B4B4;stroke-miterlimit:10;}
	.st35{fill:none;stroke:#000000;stroke-miterlimit:10;}
	.st36{clip-path:url(#SVGID_00000110435630287910521130000016934262002806043017_);}
	.st37{clip-path:url(#SVGID_00000083048251310160262160000014766006241264527036_);}
	.st38{clip-path:url(#SVGID_00000026857816709886366610000003139589390415009449_);}
	.st39{clip-path:url(#SVGID_00000059989492748964745620000008950816969324112293_);}
	.st40{fill:#B4B4B4;}
	.st41{fill:none;stroke:#323232;stroke-width:0.9684;stroke-miterlimit:10;}
	.st42{fill:none;stroke:#FF0000;stroke-width:2;stroke-miterlimit:10;}
</style>
<g id="背景">
</g>
<g id="レイヤー_5">
</g>
<g id="レイアウト">
	<path class="st13" d="M10,0C4.5,0,0,4.5,0,10s4.5,10,10,10s10-4.5,10-10C20,4.5,15.5,0,10,0z M15,12.1c0,1.6-1.3,2.9-2.9,2.9H7.9
		C6.3,15,5,13.7,5,12.1V7.9C5,6.3,6.3,5,7.9,5h4.1C13.7,5,15,6.3,15,7.9V12.1z M12.1,6H7.9c-1.1,0-2,0.9-2,2v4.1c0,1.1,0.9,2,2,2
		h4.1c1.1,0,2-0.9,2-2V7.9C14,6.9,13.1,6,12.1,6z M10,12.6c-1.4,0-2.6-1.1-2.6-2.6c0-1.4,1.2-2.6,2.6-2.6c1.4,0,2.6,1.1,2.6,2.6
		C12.6,11.4,11.4,12.6,10,12.6z M12.6,8C12.3,8,12,7.7,12,7.4s0.3-0.6,0.6-0.6c0.3,0,0.6,0.3,0.6,0.6S13,8,12.6,8z M10,8.4
		c-0.9,0-1.6,0.7-1.6,1.6c0,0.9,0.7,1.6,1.6,1.6s1.6-0.7,1.6-1.6C11.6,9.1,10.9,8.4,10,8.4z"/>
</g>
<g id="ガイド">
</g>
<g id="注釈">
</g>
</svg>
