<?xml version="1.0" encoding="utf-8"?>
<!-- Generator: Adobe Illustrator 27.2.0, SVG Export Plug-In . SVG Version: 6.00 Build 0)  -->
<svg version="1.1" xmlns="http://www.w3.org/2000/svg" xmlns:xlink="http://www.w3.org/1999/xlink" x="0px" y="0px"
	 viewBox="0 0 50 60" style="enable-background:new 0 0 50 60;" xml:space="preserve" width="50" height="60">
<style type="text/css">
	.st0{fill:#FAFAFA;}
	.st1{clip-path:url(#SVGID_00000120533429869872202030000014543640604660713641_);}
	.st2{clip-path:url(#SVGID_00000094601657247584710890000002648424590524755643_);}
	.st3{clip-path:url(#SVGID_00000066512060450169119390000001551572961272429497_);}
	.st4{clip-path:url(#SVGID_00000103957567047917724720000005548979046991591067_);}
	.st5{clip-path:url(#SVGID_00000168797036123484415670000013992966778464799132_);}
	.st6{clip-path:url(#SVGID_00000057869943424825242250000006013961843086861750_);}
	.st7{fill:#B1AEB0;}
	.st8{clip-path:url(#SVGID_00000029725512353155818240000006610947059209476498_);}
	.st9{clip-path:url(#SVGID_00000016065246709120202500000016135076804735158697_);}
	.st10{clip-path:url(#SVGID_00000061431211090491250400000000620399215915962802_);}
	.st11{clip-path:url(#SVGID_00000056417834406880742800000014784587582724092820_);}
	.st12{fill:#9D9A9C;}
	.st13{fill:#FFFFFF;}
	.st14{fill:none;stroke:#323232;stroke-miterlimit:10;}
	.st15{fill:#323232;}
	.st16{fill:none;stroke:#989898;stroke-miterlimit:10;}
	.st17{fill:none;}
	.st18{fill:#F8F9F9;}
	.st19{fill:none;stroke:#FFFFFF;stroke-miterlimit:10;}
	.st20{clip-path:url(#SVGID_00000175298716991075150150000015404725180684014253_);}
	.st21{clip-path:url(#SVGID_00000030464575938362688030000004336867635197286540_);}
	.st22{clip-path:url(#SVGID_00000073692449288619591550000008194419927498822301_);}
	.st23{clip-path:url(#SVGID_00000034770491847357133240000010014141243799552943_);}
	.st24{clip-path:url(#SVGID_00000121965248639751238580000018142250651568867997_);}
	.st25{clip-path:url(#SVGID_00000047781178172840587510000000467284086113951667_);}
	.st26{fill:none;stroke:#B4B4B4;stroke-miterlimit:10;}
	.st27{clip-path:url(#SVGID_00000113313859012624098380000008722368569420976794_);}
	.st28{clip-path:url(#SVGID_00000106138196968147380920000014309459359226630307_);}
	.st29{clip-path:url(#SVGID_00000149363944042724766480000008035333531466760867_);}
	.st30{clip-path:url(#SVGID_00000013172371466489290170000013551340798484348600_);}
	.st31{clip-path:url(#SVGID_00000150104690903313806030000007190778910196611973_);}
	.st32{clip-path:url(#SVGID_00000170257825874605972470000011797852356481064093_);}
	.st33{clip-path:url(#SVGID_00000034794849479687882690000008420157182321768368_);}
	.st34{fill:#FFFFFF;stroke:#B4B4B4;stroke-miterlimit:10;}
	.st35{fill:none;stroke:#000000;stroke-miterlimit:10;}
	.st36{clip-path:url(#SVGID_00000121238789908694486750000014299845682724549519_);}
	.st37{clip-path:url(#SVGID_00000048477007802453563370000007488726584896488852_);}
	.st38{clip-path:url(#SVGID_00000093150242081756291180000017966497597987523501_);}
	.st39{clip-path:url(#SVGID_00000062887022317192933930000012131291802197153444_);}
	.st40{fill:#B4B4B4;}
	.st41{fill:none;stroke:#323232;stroke-width:0.9684;stroke-miterlimit:10;}
	.st42{fill:none;stroke:#FF0000;stroke-width:2;stroke-miterlimit:10;}
</style>
<g id="背景">
</g>
<g id="レイヤー_5">
</g>
<g id="レイアウト">
	<g>
		<path d="M26.6,7.3C38.5,7.2,45,7.9,48.2,9c0.8,0.3,1.3-0.7,0.7-1.6c-0.8-1.4-3.4-3.4-4.8-3.1c-1.4,0.3-3.2,0.5-5.2,0.6
			C34,5,31.2,3.6,29,2.6c-2.9-1.3-2.9-2.3-4.1-2.5c-1.6-0.3-3,1.3-2.2,2.2c0.3,0.3,0.5,1.4,0.6,3.2c-5.6,0.2-19,1-21.4,0.8
			c-1-0.1-1.5,1-0.5,1.8c1.8,1.4,3,2.7,4.1,2c1.2-0.9,4.6-2.3,17.9-2.6c0,0.5,0.1,1,0.1,1.5c-1.6,0.2-3.3,0.6-4.9,1.2
			C6,14.9,2.8,25.5,7.4,30.3c2.7,2.8,9.3,3.1,16.2,1.9c0,0,0,0,0,0c0,0.7,0,1.4,0,2.2c-6.2,1.7-13,3.7-19.2,2.6
			c-1.2-1.4-3-1.1-3.3-0.3c-0.2,0.7,0.9,1.3,2.5,1.6c2.2,4.9-2.4,8.8,1.7,11.6c3.3,2.2,10.8,0.6,18.1-5.3c-0.2,5.5-0.3,9.4-0.4,9.9
			c-0.5,2.4-1.2,2.7-1.3,3.8c-0.1,1.2,0.8,1.9,1.8,1.8c1-0.1,3.2-1.3,2.9-3.7c-0.1-0.9-0.1-6.7-0.2-14.4c2.5-2.6,4.6-5.4,6.3-8.2
			c0.6,0,1.1,0.2,1.3,0.4c0.8,0.8-6.8,11-5.6,13.8c1.1,2.4,6.3,1.3,11.2-6.5c-2.1,7,3.2,11.1,8.1,6.3c2.1-2.1,1-5.1-0.6-5.6
			c-0.5-0.1-0.9,0.2-0.7,0.7c0.7,1.6-2.8,5.2-4.6,3.7c-1.5-1.2,2.4-7.4,2.9-8.5c0.9-1.8-1.9-3.3-3.3-3c-0.6,0.1-0.7,0.6-0.4,0.9
			c0.3,0.3,0.2,1.1-1.1,3.2c-1.2,2-5.9,8.7-7.4,7.8c-1.1-0.6,4-8.3,5.1-10.8c0.6-1.4,0-2.6-1.4-3c-0.9-0.3-1.9-0.4-2.9-0.4
			c0.8-1.4,1.5-2.8,2.1-4.1c5.2-2.6,9-6,8.7-9.8c-0.4-4.5-6.8-6-9.2-4.3c0,0,0,0,0,0c0,0,0,0,0,0l0,0c-0.4,0.3-0.6,0.7-0.5,1
			c0.8,2.5,0.6,7-1.4,12.2c-2,1-4.3,1.8-6.5,2.3c0-4.6,0-9.3,0-13.5c4.6-2,9-3.8,8.7-4.8c-0.4-1.5-4.1-2.8-8.6-2.8c0-0.5,0-1,0-1.4
			C26.4,7.3,26.5,7.3,26.6,7.3z M10.8,28.4c-4-4.4-0.3-11.3,6.5-14.4c2.2-1,4.4-1.7,6.3-2c0,1.4,0.1,2.9,0.1,4.5
			c-1.3,0.6-2.6,1.2-3.7,1.8c-0.6-0.4-1.3-0.6-2.1-0.7c-6.3-0.6-9,7.3-4.6,10.3c3.8,2.7,7.7-0.1,7.7-3.6c0-2.4-1.3-3.8-2.7-4.1
			c0.5-0.3,1-0.6,1.5-0.9c2.1,1.4,3.5,4.9,3.8,11C18.1,31.3,12.9,30.7,10.8,28.4z M16,20.9c-1.1,1.3-0.3,3,1,2.8
			c1-0.2,1-1.5,0.2-1.9c0.7-0.4,1.6,0.4,1.5,1.8c-0.1,2-1.2,4.2-3.5,3.2c-2.5-1.1-1.8-8.3,2.3-8.2c0.5,0,0.9,0.1,1.4,0.2
			C17.5,19.6,16.4,20.3,16,20.9z M10,45.3c-2.7-1-3.1-3.4-4.8-6.9c5.1,0.5,12.3-1.5,18.3-3.1c0,2-0.1,3.9-0.1,5.6
			C18.6,45.1,13.3,46.6,10,45.3z M26.2,38.2c0-1.2,0-2.4,0-3.6c1.2-0.3,2.2-0.5,3.2-0.7c-0.6,0.9-1.2,1.8-1.9,2.7
			C27.1,37.2,26.6,37.7,26.2,38.2z M38.5,18.5L38.5,18.5c0.7-3.8,4-3,2.3,1.4c-0.8,2-2.3,3.8-4.4,5.4C37.5,22.4,38.2,20,38.5,18.5z
			 M31.7,29.9c-0.5,1-1,1.9-1.6,2.9c-1.2,0.2-2.5,0.5-3.9,0.8c0-0.7,0-1.4,0-2.1C28.1,31.1,29.9,30.6,31.7,29.9z M23.7,23.4
			c-0.7-2-1.7-3.5-3-4.5c0.9-0.5,1.9-0.9,3-1.4C23.7,19.4,23.7,21.4,23.7,23.4z M30.5,12.7c0.1,0.5-1.8,1.5-4.2,2.7
			c0-1.3,0-2.5,0-3.7C28.7,11.6,30.4,12,30.5,12.7z M33.7,5.1c-2.6,0.1-5.1,0.2-7.4,0.2c0-1.3,0-2.4,0.1-3.3
			C28.8,3.6,31.2,4.6,33.7,5.1z"/>
		<g>
			<path d="M39.7,52.9v0.4c0,0,0,0-0.1-0.1c-0.2-0.2-0.5-0.3-0.9-0.3c-0.4,0-0.7,0.1-0.9,0.3c-0.3,0.3-0.4,0.8-0.4,1.3
				c0,0.5,0.1,0.9,0.4,1.3c0.2,0.2,0.5,0.3,0.9,0.3c0.4,0,0.7-0.1,0.9-0.3c0,0,0,0,0.1-0.1v0.5c0,0.6-0.3,1.1-1,1.1
				c-0.4,0-0.6-0.1-0.8-0.3l-0.2,0.2c0.3,0.3,0.6,0.4,1,0.4c0.8,0,1.3-0.6,1.3-1.4v-3.3H39.7z M39.4,55.6c-0.2,0.2-0.4,0.3-0.7,0.3
				c-0.3,0-0.5-0.1-0.7-0.3c-0.3-0.3-0.3-0.7-0.3-1.1c0-0.4,0-0.8,0.3-1.1c0.2-0.2,0.4-0.3,0.7-0.3c0.3,0,0.5,0.1,0.7,0.3
				c0.3,0.3,0.3,0.7,0.3,1.1C39.7,54.9,39.7,55.3,39.4,55.6z"/>
			<path d="M35.8,55.8c-0.2,0.2-0.5,0.3-0.9,0.3c-0.4,0-0.7-0.1-0.9-0.3c-0.3-0.3-0.4-0.8-0.4-1.3c0-0.5,0.1-0.9,0.4-1.3
				c0.2-0.2,0.5-0.3,0.9-0.3c0.4,0,0.7,0.1,0.9,0.3c0.3,0.3,0.4,0.8,0.4,1.3C36.1,55,36.1,55.4,35.8,55.8z M35.5,53.5
				c-0.2-0.2-0.4-0.3-0.7-0.3c-0.3,0-0.5,0.1-0.7,0.3c-0.3,0.3-0.3,0.7-0.3,1.1c0,0.4,0,0.8,0.3,1.1c0.2,0.2,0.4,0.3,0.7,0.3
				c0.3,0,0.5-0.1,0.7-0.3c0.3-0.3,0.3-0.7,0.3-1.1C35.8,54.1,35.8,53.7,35.5,53.5z"/>
			<path d="M43.9,52.9v2c0,0.6-0.3,0.9-0.9,0.9c-0.6,0-0.9-0.3-0.9-0.9v-2h-0.3v2c0,0.4,0.1,0.7,0.3,0.9c0.2,0.2,0.5,0.3,0.8,0.3
				c0,0,0,0,0,0c0,0,0,0,0,0c0.4,0,0.6-0.1,0.8-0.3c0.2-0.2,0.3-0.5,0.3-0.9v-2H43.9z"/>
			<path d="M31.7,56.1c-0.5,0-0.8-0.3-0.8-0.8v-2.1h-1v-0.2h1v-1h0.3v1h1v0.2h-1v2.1c0,0.3,0.2,0.5,0.5,0.5h0.5v0.3H31.7z"/>
		</g>
	</g>
</g>
<g id="ガイド">
</g>
<g id="注釈">
</g>
</svg>
